<svg width="24" height="24" viewBox="0 0 24 24" fill="none" xmlns="http://www.w3.org/2000/svg">
<path fill-rule="evenodd" clip-rule="evenodd" d="M12.1036 0.636528L14.4676 2.99998H20.5C22.1569 2.99998 23.5 4.34313 23.5 5.99998V21C23.5 22.6568 22.1569 24 20.5 24H3C1.34315 24 0 22.6568 0 21V5.99998C0 4.34313 1.34315 2.99998 3 2.99998H9.03L11.3962 0.636369C11.5918 0.441542 11.9082 0.441613 12.1036 0.636528ZM11.7495 2.40363L9.94366 4.20748C9.75615 4.39478 9.50197 4.49998 9.23694 4.49998H3C2.17157 4.49998 1.5 5.17155 1.5 5.99998V21C1.5 21.8284 2.17157 22.5 3 22.5H4C4 19.7386 6.23858 17.5 9 17.5H14.5C17.2614 17.5 19.5 19.7386 19.5 22.5H20.5C21.3284 22.5 22 21.8284 22 21V5.99998C22 5.17155 21.3284 4.49998 20.5 4.49998H14.2605C13.9953 4.49998 13.741 4.39465 13.5534 4.20716L11.7495 2.40363ZM14.5 19C16.433 19 18 20.567 18 22.5H5.5C5.5 20.567 7.067 19 9 19H14.5ZM11.75 6.49998C14.3734 6.49998 16.5 8.62663 16.5 11.25C16.5 13.8733 14.3734 16 11.75 16C9.12665 16 7 13.8733 7 11.25C7 8.62663 9.12665 6.49998 11.75 6.49998ZM8.5 11.25C8.5 9.45506 9.95507 7.99998 11.75 7.99998C13.5449 7.99998 15 9.45506 15 11.25C15 13.0449 13.5449 14.5 11.75 14.5C9.95507 14.5 8.5 13.0449 8.5 11.25Z" fill="black" fill-opacity="0.4"/>
</svg>
